<svg width="32" height="32" viewBox="0 0 32 32" fill="none" xmlns="http://www.w3.org/2000/svg">
<path d="M26.4 19.5C26.8 19.2 27 18.8 27.1 18.3L28.7 9.3C28.8 9 28.7 8.7 28.7 8.4C28.6 8.1 28.5 7.8 28.3 7.6C28.1 7.4 27.9 7.2 27.6 7.1C27.3 7 27.1 7 26.8 7H5.8L5.2 3.6C5.1 3.2 4.9 2.8 4.5 2.5C4.2 2.2 3.7 2 3.3 2H1C0.4 2 0 2.4 0 3C0 3.6 0.4 4 1 4H3.3L6.6 22.4C6.6 22.6 6.7 22.7 6.8 22.9C6 23.5 5.5 24.5 5.5 25.6C5.5 27.4 7.1 29 9 29C10.9 29 12.5 27.4 12.5 25.5C12.5 25 12.4 24.5 12.1 24H20.8C20.6 24.5 20.4 25 20.4 25.5C20.4 27.4 22 29 23.9 29C25.8 29 27.4 27.4 27.4 25.5C27.4 23.6 25.9 22 24 22H9H8.6L8.2 20H25.2C25.6 20 26.1 19.8 26.4 19.5ZM10.5 25.5C10.5 26.3 9.8 27 9 27C8.2 27 7.5 26.3 7.5 25.5C7.5 24.7 8.2 24 9 24C9.8 24 10.5 24.7 10.5 25.5ZM25.5 25.5C25.5 26.3 24.8 27 24 27C23.2 27 22.5 26.3 22.5 25.5C22.5 24.7 23.2 24 24 24C24.8 24 25.5 24.7 25.5 25.5ZM6.2 9H26.8L25.2 18H7.8L6.2 9Z" fill="black"/>
</svg>
