<svg width="25" height="26" viewBox="0 0 25 26" fill="none" xmlns="http://www.w3.org/2000/svg">
<path d="M23.2072 0H1.79276C0.804371 0 0 0.895543 0 1.99654V16.4446C0 17.5455 0.804371 18.4412 1.79276 18.4412H9.38171V21.5416H6.07385C5.56605 21.5416 5.15363 22.0003 5.15363 22.5668V24.0467C5.15363 24.6132 5.56618 25.0718 6.07385 25.0718H18.9262C19.434 25.0718 19.8464 24.6132 19.8464 24.0467V22.5668C19.8464 22.0003 19.434 21.5416 18.9262 21.5416H15.6183V18.4412H23.2072C24.1955 18.4412 25 17.5456 25 16.4446V1.99654C25 0.895543 24.1956 0 23.2072 0ZM1.74511 16.4446L1.79272 1.94296L23.2548 1.99654V16.4973L1.74511 16.4446ZM24.1275 15.2786C23.8786 15.2786 23.6765 15.0538 23.6765 14.7773C23.6765 14.4998 23.8786 14.2753 24.1275 14.2753C24.3763 14.2753 24.5781 14.4997 24.5781 14.7773C24.5781 15.0539 24.3763 15.2786 24.1275 15.2786ZM24.1275 13.1854C23.8786 13.1854 23.6765 12.9611 23.6765 12.6835C23.6765 12.407 23.8786 12.1823 24.1275 12.1823C24.3763 12.1823 24.5781 12.4071 24.5781 12.6835C24.5781 12.9611 24.3763 13.1854 24.1275 13.1854Z" fill="white"/>
<path d="M11.7378 10.6582C11.8289 10.6894 11.9294 10.6605 11.9968 10.5852L12.6964 9.80627L14.3349 11.6297C14.4364 11.7421 14.5999 11.7421 14.7014 11.6297L15.3481 10.9105C15.3966 10.857 15.4239 10.7834 15.4239 10.7071C15.4239 10.6308 15.3966 10.5572 15.3481 10.5031L13.7095 8.67889L14.4099 7.89861C14.4764 7.82364 14.5028 7.71351 14.4756 7.61202C14.4466 7.5115 14.3708 7.43517 14.2797 7.41379L11.2537 6.73359C11.1685 6.71468 11.0807 6.74407 11.0194 6.81234C10.9597 6.8811 10.9308 6.97882 10.9495 7.07279L11.5604 10.4398C11.58 10.5428 11.6474 10.6282 11.7378 10.6582Z" fill="white"/>
</svg>
