<svg width="32" height="32" viewBox="0 0 32 32" fill="none" xmlns="http://www.w3.org/2000/svg">
<path fill-rule="evenodd" clip-rule="evenodd" d="M26 4C26 3.40002 26.4 3 27 3C27.5 3 28 3.40002 28 4V28C28 28.6 27.6 29 27 29C26.4 29 26 28.6 26 28V4ZM6 7C6 6.40002 6.40002 6 7 6C7.5 6 8 6.5 8 7V28C8 28.6 7.59998 29 7 29C6.40002 29 6 28.6 6 28V7ZM12 10.7C12 10.1 12.4 9.70001 13 9.70001C13.6 9.70001 14 10.1 14 10.7V28C14 28.6 13.6 29 13 29C12.4 29 12 28.6 12 28V10.7ZM19.7 12.3C19.1 12.3 18.7 12.7 18.7 13.3V28C18.7 28.6 19.1 29 19.7 29C20.3 29 20.7 28.6 20.7 28V13.3C20.7 12.8 20.3 12.3 19.7 12.3Z" fill="black"/>
</svg>
