<svg width="25" height="26" viewBox="0 0 25 26" fill="none" xmlns="http://www.w3.org/2000/svg">
<g clip-path="url(#clip0)">
<path d="M23.375 14.8805L21.0312 8.16448C20.9714 7.99107 20.8714 7.84311 20.7436 7.73904C20.6158 7.63496 20.4659 7.57939 20.3125 7.57924H17.9688V5.66038C17.9688 5.40593 17.8864 5.16189 17.7399 4.98197C17.5934 4.80204 17.3947 4.70096 17.1875 4.70096H2.34375C2.13655 4.70096 1.93784 4.80204 1.79132 4.98197C1.64481 5.16189 1.5625 5.40593 1.5625 5.66038V21.9706C1.5625 22.2251 1.64481 22.4691 1.79132 22.649C1.93784 22.829 2.13655 22.93 2.34375 22.93H4.01562C4.19553 23.743 4.58828 24.4607 5.13328 24.9724C5.67827 25.4841 6.34523 25.7613 7.03125 25.7613C7.71727 25.7613 8.38423 25.4841 8.92922 24.9724C9.47422 24.4607 9.86697 23.743 10.0469 22.93H14.9531C15.133 23.743 15.5258 24.4607 16.0708 24.9724C16.6158 25.4841 17.2827 25.7613 17.9688 25.7613C18.6548 25.7613 19.3217 25.4841 19.8667 24.9724C20.4117 24.4607 20.8045 23.743 20.9844 22.93H22.6562C22.8635 22.93 23.0622 22.829 23.2087 22.649C23.3552 22.4691 23.4375 22.2251 23.4375 21.9706V15.2546C23.4373 15.126 23.416 14.9988 23.375 14.8805ZM17.9688 9.49809H19.7969L21.4688 14.2952H17.9688V9.49809ZM7.03125 23.8895C6.72222 23.8895 6.42012 23.7769 6.16317 23.5661C5.90622 23.3552 5.70595 23.0556 5.58769 22.7049C5.46943 22.3543 5.43848 21.9685 5.49877 21.5963C5.55906 21.224 5.70788 20.8821 5.9264 20.6138C6.14492 20.3454 6.42333 20.1627 6.72642 20.0886C7.02952 20.0146 7.34368 20.0526 7.62919 20.1978C7.9147 20.3431 8.15873 20.589 8.33042 20.9046C8.50211 21.2201 8.59375 21.5911 8.59375 21.9706C8.59375 22.4795 8.42913 22.9676 8.1361 23.3275C7.84308 23.6873 7.44565 23.8895 7.03125 23.8895ZM14.9531 21.0112H10.0469C9.86697 20.1982 9.47422 19.4805 8.92922 18.9688C8.38423 18.4572 7.71727 18.1799 7.03125 18.1799C6.34523 18.1799 5.67827 18.4572 5.13328 18.9688C4.58828 19.4805 4.19553 20.1982 4.01562 21.0112H3.125V6.61981H16.4062V18.6702C16.0505 18.9238 15.739 19.2611 15.4897 19.6628C15.2403 20.0645 15.058 20.5227 14.9531 21.0112ZM17.9688 23.8895C17.6597 23.8895 17.3576 23.7769 17.1007 23.5661C16.8437 23.3552 16.6434 23.0556 16.5252 22.7049C16.4069 22.3543 16.376 21.9685 16.4363 21.5963C16.4966 21.224 16.6454 20.8821 16.8639 20.6138C17.0824 20.3454 17.3608 20.1627 17.6639 20.0886C17.967 20.0146 18.2812 20.0526 18.5667 20.1978C18.8522 20.3431 19.0962 20.589 19.2679 20.9046C19.4396 21.2201 19.5312 21.5911 19.5312 21.9706C19.5312 22.4795 19.3666 22.9676 19.0736 23.3275C18.7806 23.6873 18.3832 23.8895 17.9688 23.8895ZM21.875 21.0112H20.9844C20.8116 20.1895 20.4219 19.4612 19.8763 18.9405C19.3306 18.4197 18.6598 18.1357 17.9688 18.1329V16.2141H21.875V21.0112Z" fill="white"/>
</g>
<defs>
<clipPath id="clip0">
<rect width="25" height="25.0718" fill="white"/>
</clipPath>
</defs>
</svg>
