<svg width="32" height="32" viewBox="0 0 32 32" fill="none" xmlns="http://www.w3.org/2000/svg">
<path d="M28.9 6.69998C28.9 6.59998 28.9 6.6 28.9 6.5C28.9 6.4 28.8 6.39999 28.8 6.29999C28.8 6.29999 28.8 6.19998 28.7 6.19998C28.6 6.09998 28.6 6.09998 28.5 6.09998L28.4 6H28.3C28.2 6 28.1 6 28.1 6H3.9C3.8 6 3.8 6 3.7 6C3.6 6 3.6 6 3.5 6L3.4 6.09998C3.3 6.09998 3.3 6.19998 3.2 6.19998C3.2 6.19998 3.2 6.29999 3.1 6.29999C3.1 6.39999 3 6.4 3 6.5C3 6.6 3 6.59998 3 6.69998V6.79999V23.8C3 24.3 3.2 24.8 3.6 25.2C4 25.6 4.5 25.8 5 25.8H27C27.5 25.8 28 25.6 28.4 25.2C28.8 24.8 29 24.3 29 23.8V6.79999C28.9 6.69999 28.9 6.69998 28.9 6.69998ZM4.9 9.09998L12.2 15.8L4.9 22.5V9.09998ZM15.9 16.4L6.5 7.79999H25.4L15.9 16.4ZM13.7 17.2L15.2 18.6C15.4 18.8 15.6 18.9 15.9 18.9C16.2 18.9 16.4 18.8 16.6 18.6L18.1 17.2L25.3 23.8H6.5L13.7 17.2ZM19.6 15.8L26.9 9.09998V22.6L19.6 15.8Z" fill="black"/>
</svg>
