<svg width="24" height="24" viewBox="0 0 24 24" fill="none" xmlns="http://www.w3.org/2000/svg">
<path fill-rule="evenodd" clip-rule="evenodd" d="M14.4411 1.75C14.3084 1.75 14.1762 1.76732 14.0479 1.80152C12.8489 2.12126 11.7765 2.80035 10.9748 3.74753L10.866 3.87614C10.2838 4.56399 9.96429 5.43597 9.96429 6.33714V8.55385C9.96429 9.19342 9.44581 9.7119 8.80623 9.7119H6.75V12.6119H8.92857C9.61893 12.6119 10.1786 13.1715 10.1786 13.8619V22.25H13.3929V13.8619C13.3929 13.1715 13.9525 12.6119 14.6429 12.6119H17.25V9.7119H14.6429C13.9525 9.7119 13.3929 9.15226 13.3929 8.4619V5.69048C13.3929 5.00012 13.9525 4.44048 14.6429 4.44048H17.25V1.75H14.4411ZM13.6614 0.35217C13.9158 0.284347 14.1779 0.25 14.4411 0.25H17.5C18.1904 0.25 18.75 0.809643 18.75 1.5V4.69048C18.75 5.38083 18.1904 5.94048 17.5 5.94048H14.8929V8.2119H17.5C18.1904 8.2119 18.75 8.77155 18.75 9.4619V12.8619C18.75 13.5523 18.1904 14.1119 17.5 14.1119H14.8929V22.5C14.8929 23.1904 14.3332 23.75 13.6429 23.75H9.92857C9.23822 23.75 8.67857 23.1904 8.67857 22.5V14.1119H6.5C5.80964 14.1119 5.25 13.5523 5.25 12.8619V9.4619C5.25 8.77155 5.80964 8.2119 6.5 8.2119H8.46429V6.33714C8.46429 5.08112 8.90957 3.86578 9.72102 2.90707L9.82988 2.77846C10.8294 1.59751 12.1665 0.750818 13.6614 0.35217Z" fill="black"/>
</svg>
