<svg width="32" height="32" viewBox="0 0 32 32" fill="none" xmlns="http://www.w3.org/2000/svg">
<path d="M27.363 6.76759C26.3037 5.47172 24.8593 4.47489 23.2222 4.17584C21.5852 3.8768 19.8519 4.07617 18.4074 4.87363C17.4444 5.37204 16.6741 6.06982 16 6.96696C15.3259 6.06982 14.5556 5.37204 13.5926 4.87363C12.1481 4.07617 10.4148 3.77711 8.77778 4.17584C7.14074 4.47489 5.69629 5.47172 4.63703 6.76759C3.57777 8.06347 3 9.75807 3 11.5524C3 20.5238 15.037 27.6013 15.5185 27.9003C15.7111 28 15.8074 28 16 28C16.1926 28 16.2889 28 16.4815 27.9003C16.963 27.6013 29 20.5238 29 11.5524C29 9.85776 28.4222 8.16315 27.363 6.76759ZM16 25.807C13.7852 24.4114 4.92593 18.4305 4.92593 11.5524C4.92593 10.2565 5.31111 9.0603 6.08148 8.06347C6.85185 7.06664 7.91111 6.36886 9.16296 6.1695C9.54815 6.06981 9.83704 6.06982 10.2222 6.06982C11.0889 6.06982 11.9556 6.26918 12.7259 6.66791C13.7852 7.26601 14.6519 8.26284 15.1333 9.35935C15.3259 9.75808 15.6148 9.95744 16 9.95744C16.3852 9.95744 16.7704 9.75808 16.8667 9.35935C17.3482 8.16315 18.2148 7.26601 19.2741 6.66791C20.3333 6.06981 21.5852 5.87045 22.837 6.1695C23.9926 6.36886 25.1482 7.06664 25.9185 8.06347C26.6889 9.0603 27.0741 10.2565 27.0741 11.5524C27.0741 18.4305 18.2148 24.5111 16 25.807Z" fill="black"/>
</svg>
