<svg width="24" height="24" viewBox="0 0 24 24" fill="none" xmlns="http://www.w3.org/2000/svg">
<path d="M17.5034 0H6.49657C2.9143 0 0 2.9143 0 6.49657V17.5036C0 21.0857 2.9143 24 6.49657 24H17.5036C21.0857 24 24 21.0857 24 17.5036V6.49657C24 2.9143 21.0857 0 17.5034 0ZM22.5 17.5C22.5 20.3063 20.3098 22.5 17.5034 22.5H6.49657C3.69012 22.5 1.5 20.3063 1.5 17.5V6.493C1.5 3.68655 3.69012 1.5 6.49657 1.5H17.5036C20.3098 1.5 22.5 3.68655 22.5 6.493V17.5Z" fill="#000000"/>
<circle cx="12" cy="12" r="5.25" stroke="#000000" stroke-width="1.5"/>
<circle cx="18" cy="5" r="1.25" stroke="#000000" stroke-width="1.5"/>
</svg>
