<svg width="32" height="32" viewBox="0 0 32 32" fill="none" xmlns="http://www.w3.org/2000/svg">
<path d="M28.6 20.7C28.4 20.3 28 20 27.7 19.9L21.8 17.4C21.5 17.3 21.2 17.2 20.8 17.2C20.5 17.2 20.1 17.3 19.9 17.5L16.8 19.6C14.9 18.7 13.3 17.1 12.4 15.2L14.5 12C14.7 11.7 14.8 11.4 14.8 11.1C14.8 10.8 14.8 10.4 14.6 10.1L12.1 4.20001C11.9 3.80001 11.6 3.50002 11.3 3.30002C10.9 3.10002 10.5 3 10.1 3C8.39999 3.2 6.9 4.00002 5.7 5.30002C4.6 6.60002 4 8.19999 4 9.89999C4 14.7 5.89999 19.2 9.29999 22.6C12.7 26 17.2 27.9 22 27.9C23.7 27.9 25.3 27.3 26.6 26.2C27.9 25.1 28.7 23.5 28.9 21.8C28.9 21.6 28.8 21.1 28.6 20.7ZM25.2 24.9C24.3 25.7 23.1 26.1 21.9 26.1C17.6 26.1 13.6 24.4 10.6 21.4C7.59999 18.4 5.89999 14.4 5.89999 10.1C5.89999 8.90001 6.29999 7.70002 7.09999 6.80002C7.89999 5.90002 9 5.30001 10.2 5.10001L12.7 11L10.6 14.2C10.4 14.5 10.3 14.8 10.3 15.2C10.3 15.5 10.3 15.9 10.5 16.2C11.6 18.5 13.5 20.4 15.9 21.5C16.2 21.6 16.6 21.7 16.9 21.7C17.2 21.7 17.6 21.6 17.9 21.4L21 19.3L26.9 21.8C26.7 22.9 26.1 24 25.2 24.9Z" fill="black"/>
</svg>
