<svg width="24" height="24" viewBox="0 0 24 24" fill="none" xmlns="http://www.w3.org/2000/svg">
<path d="M6.67002 13.097C6.16402 15.823 5.54802 18.437 3.72002 19.802C3.15702 15.682 4.54902 12.587 5.19502 9.302C4.09302 7.392 5.32802 3.547 7.65202 4.494C10.512 5.66 5.17503 11.596 8.75803 12.338C12.499 13.112 14.027 5.655 11.707 3.229C8.35502 -0.271996 1.95002 3.15 2.73802 8.163C2.93002 9.389 4.15902 9.761 3.22902 11.453C1.08402 10.962 0.444024 9.22 0.527024 6.897C0.659024 3.097 3.84402 0.435004 7.03802 0.067004C11.078 -0.398996 14.869 1.594 15.392 5.507C15.982 9.923 13.569 14.707 9.25002 14.362C8.07902 14.269 7.58702 13.672 6.67002 13.097V13.097Z" fill="black"/>
</svg>
