<svg width="25" height="26" viewBox="0 0 25 26" fill="none" xmlns="http://www.w3.org/2000/svg">
<path d="M24 6.41936H19.3875C19.8125 5.77137 20.0625 5.00226 20.0625 4.17864C20.0625 1.87433 18.1281 0 15.75 0C14.4562 0 13.2906 0.557152 12.5 1.43527C11.7094 0.557152 10.5438 0 9.25 0C6.87188 0 4.9375 1.87433 4.9375 4.17864C4.9375 5.00226 5.18438 5.77137 5.6125 6.41936H1C0.446875 6.41936 0 6.85237 0 7.38832V13.4443C0 13.5776 0.1125 13.6866 0.25 13.6866H1.5V24.1029C1.5 24.6388 1.94687 25.0718 2.5 25.0718H22.5C23.0531 25.0718 23.5 24.6388 23.5 24.1029V13.6866H24.75C24.8875 13.6866 25 13.5776 25 13.4443V7.38832C25 6.85237 24.5531 6.41936 24 6.41936ZM13.5625 4.17864C13.5625 3.00983 14.5438 2.05904 15.75 2.05904C16.9562 2.05904 17.9375 3.00983 17.9375 4.17864C17.9375 5.34745 16.9562 6.29824 15.75 6.29824H13.5625V4.17864ZM9.25 2.05904C10.4562 2.05904 11.4375 3.00983 11.4375 4.17864V6.29824H9.25C8.04375 6.29824 7.0625 5.34745 7.0625 4.17864C7.0625 3.00983 8.04375 2.05904 9.25 2.05904ZM2.125 11.6275V8.4784H11.4375V11.6275H2.125ZM3.625 13.6866H11.4375V23.0128H3.625V13.6866ZM21.375 23.0128H13.5625V13.6866H21.375V23.0128ZM22.875 11.6275H13.5625V8.4784H22.875V11.6275Z" fill="white"/>
</svg>
