<svg width="32" height="32" viewBox="0 0 32 32" fill="none" xmlns="http://www.w3.org/2000/svg">
<path d="M17.4 16L25.7 7.69999C26.1 7.29999 26.1 6.7 25.7 6.3C25.3 5.9 24.7 5.9 24.3 6.3L16 14.6L7.70002 6.3C7.30002 5.9 6.7 5.9 6.3 6.3C5.9 6.7 5.9 7.29999 6.3 7.69999L14.6 16L6.3 24.3C5.9 24.7 5.9 25.3 6.3 25.7C6.5 25.9 6.80001 26 7.00001 26C7.20001 26 7.50002 25.9 7.70002 25.7L16 17.4L24.3 25.7C24.5 25.9 24.8 26 25 26C25.2 26 25.5 25.9 25.7 25.7C26.1 25.3 26.1 24.7 25.7 24.3L17.4 16Z" fill="black"/>
</svg>
