<svg width="32" height="32" viewBox="0 0 32 32" fill="none" xmlns="http://www.w3.org/2000/svg">
<path fill-rule="evenodd" clip-rule="evenodd" d="M27 6H22V5C22 4.19995 21.7 3.40002 21.1 2.90002C20.5 2.30005 19.8 2 19 2H13C12.2 2 11.4 2.30005 10.9 2.90002C10.4 3.5 10 4.19995 10 5V6H5C4.39999 6 4 6.40002 4 7C4 7.59998 4.39999 8 5 8H6V26C6 26.5 6.20001 27 6.60001 27.4C7 27.8 7.5 28 8 28H24C24.5 28 25 27.8 25.4 27.4C25.8 27 26 26.5 26 26V8H27C27.6 8 28 7.59998 28 7C28 6.40002 27.6 6 27 6ZM12 5C12 4.69995 12.1 4.5 12.3 4.30005C12.5 4.09998 12.7 4 13 4H19C19.3 4 19.5 4.09998 19.7 4.30005C19.9 4.5 20 4.69995 20 5V6H12V5ZM24 26H8V8H24V26ZM13 12C12.4 12 12 12.4 12 13V21C12 21.6 12.4 22 13 22C13.6 22 14 21.6 14 21V13C14 12.4 13.6 12 13 12ZM18 13C18 12.4 18.4 12 19 12C19.6 12 20 12.4 20 13V21C20 21.6 19.6 22 19 22C18.4 22 18 21.6 18 21V13Z" fill="black"/>
</svg>
