<svg width="32" height="32" viewBox="0 0 32 32" fill="none" xmlns="http://www.w3.org/2000/svg">
<path d="M29.141 26.5C27.841 24.2 25.941 22.3 23.641 21C22.741 20.5 21.741 20 20.741 19.7C23.341 18.1 25.141 15.3 25.141 12C25.141 7 21.141 3 16.141 3C11.141 3 7.14096 7 7.14096 12C7.14096 15.3 8.94095 18.2 11.5409 19.7C10.5409 20 9.54096 20.4 8.64096 21C6.34096 22.3 4.44096 24.2 3.14096 26.5C2.84096 27 3.04095 27.6 3.54095 27.9C4.04095 28.2 4.64096 28 4.94096 27.5C6.04096 25.5 7.74096 23.9 9.74096 22.7C13.641 20.4 18.841 20.4 22.741 22.7C24.741 23.8 26.3409 25.5 27.5409 27.5C27.7409 27.8 28.041 28 28.441 28C28.641 28 28.741 28 28.941 27.9C29.241 27.6 29.441 27 29.141 26.5ZM9.14096 12C9.14096 8.1 12.241 5 16.141 5C20.041 5 23.141 8.1 23.141 12C23.141 15.9 20.041 19 16.141 19C12.241 19 9.14096 15.9 9.14096 12Z" fill="black"/>
</svg>
